<svg xmlns="http://www.w3.org/2000/svg" xmlns:xlink="http://www.w3.org/1999/xlink" viewBox="0 0 428.82 429.72">
    <path fill="currentColor"
        d="M410.32,239l-18-4.54c-42.31-10.65-50.61-67.12-13.18-89.51l15.92-9.52a24.48,24.48,0,0,0-25.1-42L354,102.91c-37.45,22.38-83.26-11.69-72.61-54l4.54-18a24.49,24.49,0,1,0-47.26-12.85c-.08.3-.16.59-.23.89L234,37c-10.65,42.3-67.13,50.62-89.52,13.17L134.91,34.2a24.49,24.49,0,0,0-42,25.11l9.53,15.93c22.38,37.44-11.69,83.25-54,72.6l-18-4.53a24.49,24.49,0,0,0-11.95,47.5l18,4.52C78.78,206,87.1,262.45,49.65,284.84l-15.92,9.52a24.49,24.49,0,0,0,25.11,42l15.93-9.53c37.44-22.38,83.26,11.69,72.61,54l-4.53,18a24.49,24.49,0,1,0,47.26,12.85c.08-.3.16-.59.23-.89v0l4.53-18c10.65-42.31,67.13-50.62,89.51-13.18l9.53,15.92a24.48,24.48,0,0,0,42-25.11l-9.5-15.92c-22.38-37.44,11.68-83.25,54-72.6l18,4.53a24.49,24.49,0,0,0,12-47.49Zm-226,10.94a20.65,20.65,0,1,1-15-25.07A20.64,20.64,0,0,1,184.28,249.89ZM208.75,214a41.31,41.31,0,1,1,50.15-30A41.31,41.31,0,0,1,208.75,214Zm47.58,81.63a30.07,30.07,0,1,1,30.07-30.07A30.07,30.07,0,0,1,256.33,295.58Z" />
</svg>