<svg xmlns="http://www.w3.org/2000/svg" viewBox="0 0 466.49 466.17">
    <circle fill="currentColor" cx="233.24" cy="233.24" r="78.24" transform="translate(-96.61 233.24) rotate(-45)" />
    <path fill="currentColor"
        d="M451.63,204.28H404.24a173.53,173.53,0,0,0-142-142V14.86A14.86,14.86,0,0,0,247.35,0H219.14a14.86,14.86,0,0,0-14.86,14.86V62.25a173.55,173.55,0,0,0-142,142H14.86A14.86,14.86,0,0,0,0,219.14v28.21a14.86,14.86,0,0,0,14.86,14.86H62.24a173.55,173.55,0,0,0,142,142v47.06a14.86,14.86,0,0,0,14.86,14.86h28.21a14.86,14.86,0,0,0,14.86-14.86V404.25a173.55,173.55,0,0,0,142-142h47.39a14.86,14.86,0,0,0,14.86-14.86V219.14A14.86,14.86,0,0,0,451.63,204.28Zm-102.08,29A116.31,116.31,0,1,1,233.24,116.93,116.31,116.31,0,0,1,349.55,233.24Z" />

</svg>